# xmcd
#
# Track frame offsets:
# 150
# 9367
# 16728
# 26172
# 33718
# 41764
# 51908
# 62019
# 72740
# 78894
# 85986
# 91713
#
# Disc length: 1520 seconds
#
#
# Revision: 0
# Processed by: cddbd v1.4PL0 Copyright (c) Steve Scherf et al.
# Submitted via: FreeRIP 2.00 
#
DISCID=9305ee0c
DTITLE=Joaquin Sabina - Juan echanove recita sus 12 canciones preferidas
DYEAR=2002
DGENRE=Pop
TTITLE0=Calle melancolia
TTITLE1=A la orilla de la chimenea
TTITLE2=Y sin embargo
TTITLE3=Tan joven y tan viejo
TTITLE4=El café de Nicanor
TTITLE5=Así estoy yo sin ti
TTITLE6=La canción mas hermosa del mundo
TTITLE7=Peces de ciudad
TTITLE8=Princesa
TTITLE9=Quien me ha robado el mes de abril
TTITLE10=No permita la virgen
TTITLE11=Como te digo una co te digo la o
EXTD=
EXTT0=
EXTT1=
EXTT2=
EXTT3=
EXTT4=
EXTT5=
EXTT6=
EXTT7=
EXTT8=
EXTT9=
EXTT10=
EXTT11=
PLAYORDER=
